<svg viewBox="-.1 -.1 7.128 8.2" xmlns="http://www.w3.org/2000/svg">
    <g stroke="#FAFAFA" stroke-linecap="round" stroke-linejoin="round"
                        stroke-opacity=".5" stroke-width=".05">
        <path fill="#70FF8D" d="M5.196 3l1.732-1-1.732-1"/>
        <path fill="#38FFC6" d="M5.196 1v2L3.464 2"/>
        <path fill="#0FF" d="M3.464 2l1.732-1-1.732-1"/>
        <path fill="#00C6FF" d="M3.464 2V0L1.732 1"/>
        <path fill="#008DFF" d="M1.732 1l1.732 1-1.732 1"/>
        <path fill="#0054FF" d="M1.732 3V1L0 2"/>
        <path fill="#001CFF" d="M1.732 3L0 2v2"/>
        <path fill="#0000E2" d="M0 4l1.732-1v2"/>
        <path fill="#0000A9" d="M1.732 5L0 4v2"/>
        <path fill="#8D0000" d="M1.732 5L0 6l1.732 1"/>
        <path fill="#C60000" d="M1.732 7V5l1.732 1"/>
        <path fill="red" d="M3.464 6L1.732 7l1.732 1"/>
        <path fill="#FF3800" d="M3.464 6v2l1.732-1"/>
        <path fill="#FF7000" d="M5.196 7L3.464 6l1.732-1"/>
        <path fill="#FFA900" d="M5.196 5v2l1.732-1"/>
        <path fill="#FFE200" d="M5.196 5l1.732 1V4"/>
        <path fill="#E2FF1C" d="M5.196 5l1.732-1-1.732-1"/>
        <path fill="#A9FF54" d="M5.196 5V3L3.464 4z"/>
    </g>
</svg>
