<svg viewBox="-.1 -.1 7 8.1" xmlns="http://www.w3.org/2000/svg">
    <g stroke="#FAFAFA" stroke-width="0.05" stroke-opacity="0.5"
                        stroke-linecap="round" stroke-linejoin="round">
        <path fill="#70FF8D" d="M5.196 3l1.732-1-1.732-1"/>
        <path fill="#38FFC6" d="M5.196 1v2l-1.732-1"/>
        <path fill="#00FFFF" d="M3.464 2l1.732-1-1.732-1"/>
        <path fill="#00C6FF" d="M3.464 2v-2l-1.732 1"/>
        <path fill="#008DFF" d="M1.732 1l1.732 1-1.732 1"/>
        <path fill="#0054FF" d="M1.732 3v-2l-1.732 1"/>
        <path fill="#001CFF" d="M1.732 3l-1.732-1v2"/>
        <path fill="#0000E2" d="M0 4l1.732-1v2"/>
        <path fill="#0000A9" d="M1.732 5l-1.732-1v2"/>
        <path fill="#8D0000" d="M1.732 5l-1.732 1 1.732 1"/>
        <path fill="#C60000" d="M1.732 7v-2l1.732 1"/>
        <path fill="#FF0000" d="M3.464 6l-1.732 1 1.732 1"/>
        <path fill="#FF3800" d="M3.464 6v2l1.732-1"/>
        <path fill="#FF7000" d="M5.196 7l-1.732-1 1.732-1"/>
        <path fill="#FFA900" d="M5.196 5v2l1.732-1"/>
        <path fill="#FFE200" d="M5.196 5l1.732 1v-2"/>
        <path fill="#E2FF1C" d="M5.196 5l1.732-1-1.732-1"/>
        <path fill="#A9FF54" d="M5.196 5v-2l-1.732 1Z"/>
    </g>
</svg>
