<svg xmlns="http://www.w3.org/2000/svg" width="256" height="214" viewBox="0 0 256 214">
  <linearGradient id="a" x1="49.9%" x2="49.9%" y1="99.9%" y2="-.1%">
    <stop offset="0%" stop-color="#8AC23E"/>
    <stop offset="100%" stop-color="#8AC23E" stop-opacity="0"/>
  </linearGradient>
  <linearGradient id="b" x1="50%" x2="50%" y1=".1%" y2="100.1%">
    <stop offset="0%" stop-color="#698932"/>
    <stop offset="100%" stop-color="#698932" stop-opacity="0"/>
  </linearGradient>
  <linearGradient id="c" x1="50.1%" x2="50.1%" y1=".1%" y2="100.1%">
    <stop offset="0%" stop-color="#FFED01"/>
    <stop offset="100%" stop-color="#FFED01" stop-opacity="0"/>
  </linearGradient>
  <linearGradient id="d" x1="50%" x2="50%" y1=".1%" y2="100.1%">
    <stop offset="0%" stop-color="#E02A89"/>
    <stop offset="100%" stop-color="#E02A89" stop-opacity="0"/>
  </linearGradient>
  <linearGradient id="e" x1="50%" x2="50%" y1="-.1%" y2="99.9%">
    <stop offset="0%" stop-color="#7F1E4F"/>
    <stop offset="100%" stop-color="#7F1E4F" stop-opacity="0"/>
  </linearGradient>
  <linearGradient id="f" x1="50%" x2="50%" y1="-.1%" y2="99.9%">
    <stop offset="0%" stop-color="#E95506"/>
    <stop offset="100%" stop-color="#E95506" stop-opacity="0"/>
  </linearGradient>
  <linearGradient id="g" x1="50%" x2="50%" y1="99.9%" y2="0%">
    <stop offset="0%" stop-color="#88D0F1"/>
    <stop offset="100%" stop-color="#88D0F1" stop-opacity="0"/>
  </linearGradient>
  <linearGradient id="h" x1="50%" x2="50%" y1=".1%" y2="100%">
    <stop offset="0%" stop-color="#00828B"/>
    <stop offset="83.3%" stop-color="#00828B" stop-opacity="0"/>
  </linearGradient>
  <linearGradient id="i" x1="50.1%" x2="50.1%" y1="100%" y2=".1%">
    <stop offset="0%" stop-color="#2073BA"/>
    <stop offset="100%" stop-color="#2073BA" stop-opacity="0"/>
  </linearGradient>
  <linearGradient id="j" x1="50%" x2="50%" y1=".1%" y2="100%">
    <stop offset="0%" stop-color="#8ED0E1"/>
    <stop offset="100%" stop-color="#88D0F1" stop-opacity="0"/>
  </linearGradient>
  <path fill="#272525" d="M80.9 176a12.1 12.1 0 0 0-4.8-3.8 19.1 19.1 0 0 0-11.5-1l-3.5 1a20.8 20.8 0 0 0-5.2 2.6 13 13 0 0 0-4.5-2.9c-1.8-.7-4.1-1.1-6.9-1.1a54.9 54.9 0 0 0-16.4 2.2v39.3h9.4v-32.8l2.8-.4c1.2-.2 2.4-.2 3.4-.2 2.9 0 4.9.9 5.9 2.8 1.1 1.9 1.6 5 1.6 9.2v21.4h9.4v-22.5l-.2-4.7c-.2-1.5-.4-2.8-.9-4.1a14.2 14.2 0 0 1 7.3-2.1c3 0 4.9.9 6 2.8 1 1.9 1.6 5 1.6 9.2v21.4H84v-22.8c0-2.7-.2-5.3-.7-7.6-.4-2.3-1.2-4.3-2.4-5.9zm36.5-.9c-1.3-1.4-3-2.5-5.1-3.3a24 24 0 0 0-7.7-1.2h-.2a42.3 42.3 0 0 0-12.5 1.8l1.2 7.6a36.4 36.4 0 0 1 10.4-1.6h1.1c1.1.1 2.1.3 2.9.6a7 7 0 0 1 2.6 1.7 8.2 8.2 0 0 1 1.8 5.7v1.6a59.3 59.3 0 0 0-7-.9h-.3c-2.1 0-4.2.2-6.1.7-2 .4-3.8 1.2-5.4 2.2-1.6 1-2.8 2.3-3.7 3.9a12 12 0 0 0-1.4 5.9c0 2.4.4 4.5 1.2 6.1a10 10 0 0 0 3.3 4c1.4 1 3.1 1.8 5.2 2.3 2 .5 4.2.7 6.7.7h.2a110.7 110.7 0 0 0 16.3-1.8v-24.6c0-2.4-.3-4.6-.8-6.6-.5-1.7-1.4-3.4-2.7-4.8zm-5.5 30.2c-1.5.3-3.7.5-6.6.5h-.6c-2.1-.1-3.8-.5-5.1-1.3-1.4-.9-2.1-2.4-2.1-4.6 0-1.1.3-2.1.8-2.8.5-.8 1.2-1.3 2.1-1.7.9-.4 1.8-.7 2.9-.9l1.5-.2 1.7-.1 3.3.2 2.3.5v10.4h-.2zm36.5-34l-2.5-.3-2.2-.1a43.2 43.2 0 0 0-15.9 2.8v38.7h9.4v-32.6l2.4-.5 3.3-.3c1.8 0 3.4.1 4.8.4l3.2.8 1.6-7.9-1.9-.5a6 6 0 0 0-2.2-.5zm34.3 29.1a97 97 0 0 0-9.9-10.6l8.6-9.1 8.2-9h-11.1l-3 3.5-3.7 4.1-4 4.3-3.8 4V152l-9.4 1.6v58.7h9.4v-18.6a64.8 64.8 0 0 1 12.5 13.6c1.2 1.8 2.3 3.4 3.2 5.1h10.9c-.9-1.8-2.1-3.7-3.5-5.8a63.7 63.7 0 0 0-4.4-6.2zm43.6-17.2c-1-2.6-2.3-4.9-4-6.7a16.9 16.9 0 0 0-6.2-4.3c-2.4-1-5-1.5-7.9-1.5-2.8 0-5.5.5-7.8 1.5a17.7 17.7 0 0 0-10.2 11 27.5 27.5 0 0 0 0 17.5 19 19 0 0 0 10.1 11.2 20.3 20.3 0 0 0 15.9 0c2.4-1 4.5-2.5 6.2-4.4 1.7-1.9 3-4.1 4-6.8a27 27 0 0 0-.1-17.5zm-10.8 18.5a8.5 8.5 0 0 1-7.3 3.6 8.6 8.6 0 0 1-7.3-3.6 16.4 16.4 0 0 1-2.6-9.7c0-4 .9-7.2 2.6-9.6a8.4 8.4 0 0 1 7.3-3.5c3.1 0 5.5 1.2 7.3 3.5 1.7 2.4 2.6 5.6 2.6 9.6 0 4.1-.9 7.3-2.6 9.7z"/>
  <path fill="#8DC220" d="M128.1 0h36.1l-42.7 69.7H85.4L128.1 0z"/>
  <path fill="#44BFEF" d="M42.7 0h36.1L57.4 34.9 36.1 69.7l21.3 34.9a6531 6531 0 0 0 21.4 34.8H42.7l-21.4-34.8L0 69.8 21.3 35 42.7 0z"/>
  <path fill="#00AC71" d="M42.7 0l42.7 69.7h36.1L78.8 0H42.7z"/>
  <path fill="#F9BC00" d="M164.2 0h-36.1l21.4 34.9 21.4 34.8-21.4 34.9a6531 6531 0 0 1-21.4 34.8h36.1l21.4-34.8L207 69.7a6531 6531 0 0 1-21.4-34.8L164.2 0z"/>
  <path fill="url(#a)" d="M149.3 24.6h-36.1L99.4 47.2 85.5 69.8h36.1l13.9-22.6a1049 1049 0 0 1 13.8-22.6z"/>
  <path fill="url(#b)" d="M100.5 45.2h36.1l13.8-22.6L164.2 0h-36.1l-13.8 22.6-13.8 22.6z"/>
  <path fill="url(#c)" d="M191.9 45.2h-36.1l-13.9-22.6L128.1 0h36.1L178 22.6l13.9 22.6z"/>
  <path fill="#DF1B1C" d="M213.2 0h-36.1l21.3 34.9 21.4 34.8-21.4 34.9a6531 6531 0 0 1-21.4 34.8h36.1a16941.1 16941.1 0 0 1 42.8-69.7 6531 6531 0 0 0-21.4-34.8L213.2 0z"/>
  <path fill="url(#d)" d="M240.9 45.2h-36.1l-13.9-22.6L177.1 0h36.1L227 22.6l13.9 22.6z"/>
  <path fill="url(#e)" d="M192.2 115h36.1l13.8-22.6L256 69.8h-36.2L206 92.4 192.2 115z"/>
  <path fill="url(#f)" d="M143.2 115h36.1l13.8-22.6L207 69.8h-36.1l-13.8 22.6-13.9 22.6z"/>
  <path fill="url(#g)" d="M63.8 24.6H27.7L13.9 47.2 0 69.8h36.1l13.8-22.6 13.9-22.6z"/>
  <path fill="url(#h)" d="M15 45.2h36.1l13.8-22.6L78.8 0H42.7L28.9 22.6 15 45.2z"/>
  <path fill="url(#i)" d="M15 94.3h36.1l13.8 22.6 13.8 22.6H42.6l-13.9-22.6L15 94.3z"/>
  <path fill="url(#j)" d="M106.5 45.2H70.4L56.6 22.6 42.7 0h36.1l13.8 22.6 13.9 22.6z"/>
</svg>
