<svg width="152" height="33" viewBox="0 0 152 33" xmlns="http://www.w3.org/2000/svg"><title>postcss-logo-type</title><g fill="none" fill-rule="evenodd"><path d="M132.228 30.436l.322-7.774h3.22l.828 4.922c1.32.49 2.637.736 3.956.736 2.637 0 4.447-.86 5.428-2.576.337-.583.506-1.342.506-2.277s-.284-1.78-.85-2.53c-.568-.75-1.504-1.45-2.807-2.093-1.3-.644-2.59-1.227-3.862-1.748-1.273-.52-2.423-1.142-3.45-1.863-1.027-.72-1.87-1.61-2.53-2.668-.66-1.058-.99-2.33-.99-3.818 0-1.487.27-2.737.806-3.75.537-1.01 1.265-1.87 2.185-2.575C136.92.95 139.28.214 142.07.214c2.7 0 5.29.46 7.774 1.38l.644 7.912h-3.174l-2.024-4.968c-.92-.307-2.078-.46-3.473-.46-1.397 0-2.578.322-3.544.966-.966.644-1.45 1.625-1.45 2.944 0 1.533.768 2.79 2.3 3.772.676.46 1.427.866 2.255 1.22.83.352 1.787.773 2.876 1.264 1.09.49 2.108 1.073 3.06 1.748.95.675 1.716 1.38 2.3 2.116 1.103 1.38 1.655 2.96 1.655 4.738 0 1.78-.3 3.243-.896 4.393-.598 1.15-1.403 2.09-2.415 2.827-1.9 1.41-4.417 2.116-7.545 2.116s-5.857-.583-8.188-1.748zm-23.322 0l.322-7.774h3.22l.828 4.922c1.32.49 2.637.736 3.956.736 2.637 0 4.447-.86 5.428-2.576.337-.583.506-1.342.506-2.277s-.284-1.78-.85-2.53c-.568-.75-1.504-1.45-2.807-2.093-1.305-.644-2.593-1.227-3.866-1.748-1.273-.52-2.423-1.142-3.45-1.863-1.027-.72-1.87-1.61-2.53-2.668-.66-1.058-.99-2.33-.99-3.818 0-1.487.27-2.737.806-3.75.538-1.01 1.266-1.87 2.186-2.575C113.598.95 115.96.214 118.75.214c2.7 0 5.29.46 7.774 1.38l.644 7.912h-3.174l-2.024-4.968c-.92-.307-2.078-.46-3.473-.46s-2.576.322-3.542.966c-.966.644-1.45 1.625-1.45 2.944 0 1.533.768 2.79 2.3 3.772.676.46 1.427.866 2.255 1.22.828.352 1.786.773 2.875 1.264 1.09.49 2.108 1.073 3.06 1.748.95.675 1.716 1.38 2.3 2.116 1.103 1.38 1.655 2.96 1.655 4.738 0 1.78-.3 3.243-.897 4.393-.598 1.15-1.403 2.09-2.415 2.827-1.9 1.41-4.416 2.116-7.544 2.116-3.128 0-5.857-.583-8.188-1.748zm-3.68-.322c-1.932 1.38-4.646 2.07-8.142 2.07-4.232 0-7.85-1.35-10.856-4.048-3.28-2.975-4.922-6.87-4.922-11.684 0-5.09 1.564-9.14 4.692-12.144C88.85 1.578 92.468.214 96.854.214c1.963 0 4.232.29 6.808.874l.874 8.372h-3.128l-1.794-4.968c-.583-.215-1.595-.322-3.036-.322-1.44 0-2.83.322-4.163.966-1.334.644-2.46 1.503-3.38 2.576-1.933 2.27-2.9 5.03-2.9 8.28 0 3.527 1.06 6.44 3.175 8.74 2.147 2.33 5 3.496 8.556 3.496 1.32 0 2.53-.2 3.634-.598 1.104-.4 1.9-.782 2.392-1.15l1.334 3.634z" fill="#3F526B"/><path d="M7.66 27.998c.767.153 2.99.46 6.67.92L14.192 32H.576l-.46-3.22 2.944-.644V3.94L.162 3.71V.214h9.706c4.263 0 7.483.966 9.66 2.898 1.963 1.78 2.944 4.2 2.944 7.268 0 3.588-1.21 6.27-3.634 8.05-2.147 1.564-5.167 2.346-9.062 2.346H7.66v7.222zm9.982-17.664c0-4.11-2.79-6.164-8.372-6.164H7.66v12.65h1.932c2.82 0 4.907-.644 6.256-1.932 1.196-1.135 1.794-2.653 1.794-4.554zm13.294 16.49c.98 1.274 2.27 1.91 3.864 1.91 1.595 0 2.898-.62 3.91-1.863 1.012-1.24 1.518-3.134 1.518-5.68s-.483-4.53-1.45-5.956c-.965-1.426-2.276-2.14-3.932-2.14-1.748 0-3.097.752-4.048 2.255-.89 1.44-1.334 3.395-1.334 5.864 0 2.47.49 4.34 1.472 5.612zm-5.842-6.094c0-1.78.26-3.358.782-4.738.52-1.38 1.242-2.545 2.162-3.496 1.78-1.9 4.048-2.852 6.808-2.852 2.82 0 5.152 1.012 6.992 3.036 1.84 2.024 2.76 4.738 2.76 8.142 0 3.557-.98 6.363-2.944 8.418-1.81 1.963-4.08 2.944-6.808 2.944-2.852 0-5.183-1.043-6.992-3.128-1.84-2.055-2.76-4.83-2.76-8.326zm30.59-11.086c.98 0 1.886.138 2.714.414.828.276 1.55.63 2.162 1.058 1.165.797 2.07 1.825 2.714 3.082l-4.692 1.794-1.058-2.346c-.613-.307-1.273-.46-1.978-.46-.705 0-1.35.207-1.932.62-.583.415-.874 1.02-.874 1.818 0 .797.383 1.45 1.15 1.955.767.504 1.825 1.033 3.174 1.585 1.35.552 2.384 1.073 3.105 1.564.72.49 1.28 1.01 1.677 1.563.767 1.012 1.15 2.14 1.15 3.38 0 1.243-.23 2.263-.69 3.06-.46.797-1.058 1.457-1.794 1.978-1.44.98-3.19 1.473-5.244 1.473-1.718 0-3.39-.475-5.015-1.426-1.503-.92-2.484-2.055-2.944-3.404l4.74-1.794 1.103 2.667c.705.307 1.357.46 1.955.46.597 0 1.08-.046 1.448-.138.368-.093.705-.23 1.012-.415.705-.46 1.058-1.135 1.058-2.024 0-1.134-.698-2-2.093-2.6-1.395-.596-2.59-1.14-3.588-1.63-.997-.49-1.832-1.013-2.507-1.565-1.38-1.165-2.07-2.7-2.07-4.6 0-1.87.75-3.373 2.254-4.508 1.41-1.043 3.097-1.564 5.06-1.564zm22.54 17.71c.06.215.383 1.227.966 3.036-.43.4-1.058.797-1.886 1.196-.828.4-1.9.598-3.22.598-1.32 0-2.43-.4-3.335-1.196-.907-.797-1.36-2.1-1.36-3.91V13.094h-3.77l-.644-2.99.322-.46h4.094V1.962l3.68-.874.23.69v7.866h4.784c.153 0 .23.092.23.276v3.174h-5.014v13.202c0 .98.146 1.618.437 1.91.29.29.657.436 1.102.436.445 0 .82-.046 1.127-.138.306-.092.597-.215.873-.368.583-.245 1.043-.506 1.38-.782z" fill="#DD390A"/></g></svg>